<svg width="27" height="27" viewBox="0 0 27 27" fill="none" xmlns="http://www.w3.org/2000/svg">
<path d="M23.8359 16.875V21.4102" stroke="#1D1952" stroke-miterlimit="10" stroke-linecap="round"/>
<path d="M20.904 4.87267C16.0313 3.31174 13.5001 6.68674 13.5001 6.68674C13.5001 6.68674 10.9688 3.31174 6.09615 4.87267C-0.0210381 6.83439 -0.653851 14.9133 4.61959 19.8281C8.64849 23.5617 11.7071 25.1016 12.9094 25.6289C13.2891 25.7766 13.6899 25.7766 14.0696 25.6289C15.293 25.1227 18.3305 23.5828 22.3594 19.8281C27.654 14.9133 27.0211 6.83439 20.904 4.87267Z" fill="#F73959"/>
<path opacity="0.5" d="M22.8024 17.9297C20.3556 20.2078 18.2462 21.6633 16.7274 22.5703C14.9978 23.5828 12.8673 23.5828 11.1376 22.5703C9.59776 21.6633 7.50948 20.2078 5.0626 17.9297C2.3837 15.4617 1.22354 12.1711 1.51885 9.28125C0.358697 12.5508 1.3501 16.7906 4.61963 19.8281C8.64854 23.5617 11.7071 25.1016 12.9095 25.6289C13.2892 25.7766 13.6899 25.7766 14.0696 25.6289C15.2931 25.1227 18.3306 23.5828 22.3595 19.8281C24.4267 17.9086 25.5657 15.525 25.861 13.1836C25.3126 14.8711 24.3001 16.5375 22.8024 17.9297Z" fill="#C02344"/>
<path d="M8.35315 6.15918C8.43752 6.15918 8.5219 6.15918 8.60627 6.15918" stroke="white" stroke-miterlimit="10" stroke-linecap="round" stroke-linejoin="round"/>
<path d="M3.75476 8.56387C4.42976 7.59355 5.40007 6.87637 6.62351 6.47559" stroke="white" stroke-miterlimit="10" stroke-linecap="round" stroke-linejoin="round"/>
<path d="M20.1656 6.4126C20.25 6.43369 20.3133 6.45479 20.3977 6.47588" stroke="white" stroke-miterlimit="10" stroke-linecap="round" stroke-linejoin="round"/>
<path d="M14.8501 7.69902C14.8923 7.65684 16.0946 6.15918 18.3938 6.15918" stroke="white" stroke-miterlimit="10" stroke-linecap="round" stroke-linejoin="round"/>
<path d="M8.01562 16.875C9.0641 16.875 9.91406 16.025 9.91406 14.9766C9.91406 13.9281 9.0641 13.0781 8.01562 13.0781C6.96715 13.0781 6.11719 13.9281 6.11719 14.9766C6.11719 16.025 6.96715 16.875 8.01562 16.875Z" fill="#F95F80"/>
<path d="M20.4609 16.875C21.5094 16.875 22.3594 16.025 22.3594 14.9766C22.3594 13.9281 21.5094 13.0781 20.4609 13.0781C19.4125 13.0781 18.5625 13.9281 18.5625 14.9766C18.5625 16.025 19.4125 16.875 20.4609 16.875Z" fill="#F95F80"/>
<path d="M7.38281 14.1328C7.38281 14.1328 7.80469 10.9688 9.70313 10.9688C11.6016 10.9688 11.1797 14.1328 11.1797 14.1328" stroke="#1D1952" stroke-miterlimit="10" stroke-linecap="round"/>
<path d="M16.4531 14.1328C16.4531 14.1328 16.875 10.9688 18.7734 10.9688C20.6719 10.9688 20.25 14.1328 20.25 14.1328" stroke="#1D1952" stroke-miterlimit="10" stroke-linecap="round"/>
<path d="M12.8672 17.0859C12.8672 17.0859 12.8672 18.5625 13.9219 18.5625C14.9766 18.5625 15.1875 17.0859 15.1875 17.0859" stroke="#1D1952" stroke-miterlimit="10" stroke-linecap="round"/>
<path d="M9.99849 1.18125L9.74536 4.00781H16.411L15.8415 1.18125L14.618 2.25703L12.9938 0.421875L11.7915 2.21484L9.99849 1.18125Z" fill="#FFCE00"/>
<path d="M10.2938 2.63662L9.97739 1.49756L9.74536 4.00771H16.411L16.2422 3.16396L11.5383 3.52256C10.9688 3.56475 10.4415 3.18506 10.2938 2.63662Z" fill="#FFAA00"/>
<path d="M3.16406 16.875V21.4102C3.16406 22.7602 4.23984 23.8359 5.58984 23.8359C6.93984 23.8359 8.01562 22.7602 8.01562 21.4102V21.3047" stroke="#1D1952" stroke-miterlimit="10" stroke-linecap="round"/>
<path d="M8.01562 21.3047C7.59375 20.6719 6.75 20.6719 6.75 20.6719" stroke="#1D1952" stroke-miterlimit="10" stroke-linecap="round"/>
<path d="M7.80464 19.4062L7.76245 20.7984" stroke="#1D1952" stroke-miterlimit="10" stroke-linecap="round"/>
<path d="M8.43745 19.6172L7.97339 21.0094" stroke="#1D1952" stroke-miterlimit="10" stroke-linecap="round"/>
<path d="M9.07031 20.0391C8.92266 20.5242 8.62734 20.9672 8.01562 21.3047" stroke="#1D1952" stroke-miterlimit="10" stroke-linecap="round"/>
<path d="M23.8359 21.4102C23.8359 22.7602 22.7602 23.8359 21.4102 23.8359C20.0602 23.8359 18.9844 22.7602 18.9844 21.4102V21.3047" stroke="#1D1952" stroke-miterlimit="10" stroke-linecap="round"/>
<path d="M18.9844 21.3047C19.4062 20.6719 20.25 20.6719 20.25 20.6719" stroke="#1D1952" stroke-miterlimit="10" stroke-linecap="round"/>
<path d="M19.1953 19.4062L19.2375 20.7984" stroke="#1D1952" stroke-miterlimit="10" stroke-linecap="round"/>
<path d="M18.5625 19.6172L19.0266 21.0094" stroke="#1D1952" stroke-miterlimit="10" stroke-linecap="round"/>
<path d="M17.9297 20.0391C18.0773 20.5242 18.3727 20.9672 18.9844 21.3047" stroke="#1D1952" stroke-miterlimit="10" stroke-linecap="round"/>
</svg>
