<svg width="35" height="35" viewBox="0 0 35 35" fill="none" xmlns="http://www.w3.org/2000/svg">
<path d="M17.5 7.2915C16.1463 7.2915 14.848 7.82926 13.8908 8.78648C12.9336 9.7437 12.3958 11.042 12.3958 12.3957C12.3958 13.7494 12.9336 15.0476 13.8908 16.0049C14.848 16.9621 16.1463 17.4998 17.5 17.4998C18.8537 17.4998 20.152 16.9621 21.1092 16.0049C22.0664 15.0476 22.6042 13.7494 22.6042 12.3957C22.6042 11.042 22.0664 9.7437 21.1092 8.78648C20.152 7.82926 18.8537 7.2915 17.5 7.2915ZM17.5 10.2082C18.0802 10.2082 18.6366 10.4386 19.0468 10.8489C19.457 11.2591 19.6875 11.8155 19.6875 12.3957C19.6875 12.9758 19.457 13.5322 19.0468 13.9425C18.6366 14.3527 18.0802 14.5832 17.5 14.5832C16.9198 14.5832 16.3634 14.3527 15.9532 13.9425C15.543 13.5322 15.3125 12.9758 15.3125 12.3957C15.3125 11.8155 15.543 11.2591 15.9532 10.8489C16.3634 10.4386 16.9198 10.2082 17.5 10.2082ZM8.02083 11.6665C7.0539 11.6665 6.12657 12.0506 5.44284 12.7343C4.75911 13.4181 4.375 14.3454 4.375 15.3123C4.375 16.6832 5.14792 17.8644 6.25625 18.4915C6.78125 18.7832 7.37917 18.9582 8.02083 18.9582C8.6625 18.9582 9.26042 18.7832 9.78542 18.4915C10.325 18.1853 10.7771 17.7478 11.1125 17.2228C10.0501 15.8382 9.47578 14.1409 9.47917 12.3957V11.9873C9.04167 11.7832 8.54583 11.6665 8.02083 11.6665ZM26.9792 11.6665C26.4542 11.6665 25.9583 11.7832 25.5208 11.9873V12.3957C25.5208 14.1457 24.9521 15.8373 23.8875 17.2228C24.0625 17.4998 24.2521 17.7186 24.4708 17.9373C25.1432 18.5896 26.0424 18.9556 26.9792 18.9582C27.6208 18.9582 28.2188 18.7832 28.7437 18.4915C29.8521 17.8644 30.625 16.6832 30.625 15.3123C30.625 14.3454 30.2409 13.4181 29.5572 12.7343C28.8734 12.0506 27.9461 11.6665 26.9792 11.6665ZM17.5 20.4165C14.0875 20.4165 7.29167 22.1228 7.29167 25.5207V27.7082H27.7083V25.5207C27.7083 22.1228 20.9125 20.4165 17.5 20.4165ZM6.86875 21.2186C4.05417 21.554 0 22.9832 0 25.5207V27.7082H4.375V24.8936C4.375 23.4207 5.38125 22.1957 6.86875 21.2186ZM28.1313 21.2186C29.6188 22.1957 30.625 23.4207 30.625 24.8936V27.7082H35V25.5207C35 22.9832 30.9458 21.554 28.1313 21.2186ZM17.5 23.3332C19.7313 23.3332 22.225 24.0623 23.6688 24.7915H11.3313C12.775 24.0623 15.2688 23.3332 17.5 23.3332Z" fill="#062451"/>
</svg>
