<svg viewBox="0 0 1280 832" fill="none" xmlns="http://www.w3.org/2000/svg">
<g>
<path d="M174.933 366.219L227.84 395.893V455.52L174.933 485.195L122.027 455.52V395.893L174.933 366.219Z" stroke="#A8A89E" stroke-opacity="0.1"/>
<path d="M257.422 526.933L285.724 542.88V574.773L257.422 590.72L229.12 574.773V542.88L257.422 526.933Z" stroke="#A8A89E" stroke-opacity="0.1"/>
<path d="M133.689 671.146L180.48 697.493V750.186L133.689 776.533L86.8977 750.186V697.493L133.689 671.146Z" stroke="#A8A89E" stroke-opacity="0.1"/>
<path d="M1231.64 546.347L1279.72 573.387V627.467L1231.64 654.507L1183.57 627.467V573.387L1231.64 546.347Z" stroke="#A8A89E" stroke-opacity="0.1"/>
<path d="M1234.49 123.413L1265.35 140.747V175.413L1234.49 192.747L1203.63 175.413V140.747L1234.49 123.413Z" stroke="#A8A89E" stroke-opacity="0.1"/>
<path d="M92.4444 485.333L125.724 504.053V541.493L92.4444 560.213L59.1644 541.493V504.053L92.4444 485.333Z" stroke="#A8A89E" stroke-opacity="0.1"/>
<path d="M870.4 658.667L897.564 673.92V704.427L870.4 719.68L843.236 704.427V673.92L870.4 658.667Z" stroke="#A8A89E" stroke-opacity="0.1"/>
<path d="M315.733 391.04L346.596 408.373V443.04L315.733 460.373L284.871 443.04V408.373L315.733 391.04Z" stroke="#A8A89E" stroke-opacity="0.1"/>
<path d="M1065.24 673.92L1114.45 701.653V757.12L1065.24 784.853L1016.04 757.12V701.653L1065.24 673.92Z" stroke="#A8A89E" stroke-opacity="0.1"/>
<path d="M254.578 705.813L293.973 728V772.373L254.578 794.56L215.182 772.373V728L254.578 705.813Z" stroke="#A8A89E" stroke-opacity="0.1"/>
<path d="M465.067 637.867L504.462 660.053V704.427L465.067 726.613L425.671 704.427V660.053L465.067 637.867Z" stroke="#A8A89E" stroke-opacity="0.1"/>
<path d="M950.044 137.28L982.044 155.307V191.36L950.044 209.387L918.044 191.36V155.307L950.044 137.28Z" stroke="#A8A89E" stroke-opacity="0.1"/>
<path d="M1043.91 20.8L1073.49 37.44V70.72L1043.91 87.36L1014.33 70.72V37.44L1043.91 20.8Z" stroke="#A8A89E" stroke-opacity="0.1"/>
<path d="M594.489 94.2932L620.373 108.853V137.973L594.489 152.533L568.604 137.973V108.853L594.489 94.2932Z" stroke="#A8A89E" stroke-opacity="0.1"/>
<path d="M531.911 209.387L563.911 227.413V263.467L531.911 281.493L499.911 263.467V227.413L531.911 209.387Z" stroke="#A8A89E" stroke-opacity="0.1"/>
<path d="M281.6 198.293L312.462 215.627V250.293L281.6 267.627L250.738 250.293V215.627L281.6 198.293Z" stroke="#A8A89E" stroke-opacity="0.1"/>
<path d="M416.711 92.9067L457.387 115.787V161.547L416.711 184.427L376.036 161.547V115.787L416.711 92.9067Z" stroke="#A8A89E" stroke-opacity="0.1"/>
<path d="M748.089 765.44L792.462 790.4V840.32L748.089 865.28L703.716 840.32V790.4L748.089 765.44Z" stroke="#A8A89E" stroke-opacity="0.1"/>
<path d="M1113.6 352.213L1164.09 380.64V437.493L1113.6 465.92L1063.11 437.493V380.64L1113.6 352.213Z" stroke="#A8A89E" stroke-opacity="0.1"/>
<path d="M935.822 332.8L971.52 352.907V393.12L935.822 413.227L900.124 393.12V352.907L935.822 332.8Z" stroke="#A8A89E" stroke-opacity="0.1"/>
<path d="M860.444 49.9199L888.747 65.8666V97.7599L860.444 113.707L832.142 97.7599V65.8666L860.444 49.9199Z" stroke="#A8A89E" stroke-opacity="0.1"/>
<path d="M265.956 37.4399L295.538 54.0799V87.3599L265.956 104L236.373 87.3599V54.0799L265.956 37.4399Z" stroke="#A8A89E" stroke-opacity="0.1"/>
<path d="M585.955 721.067L613.12 736.32V766.827L585.955 782.08L558.791 766.827V736.32L585.955 721.067Z" stroke="#A8A89E" stroke-opacity="0.1"/>
<path d="M722.489 201.067L772.978 229.493V286.347L722.489 314.773L672 286.347V229.493L722.489 201.067Z" stroke="#A8A89E" stroke-opacity="0.1"/>
<path d="M469.333 493.653L500.196 510.987V545.653L469.333 562.987L438.471 545.653V510.987L469.333 493.653Z" stroke="#A8A89E" stroke-opacity="0.1"/>
<path d="M577.422 328.64L625.493 355.68V409.76L577.422 436.8L529.351 409.76V355.68L577.422 328.64Z" stroke="#A8A89E" stroke-opacity="0.1"/>
<path d="M439.467 -26.3467L466.631 -11.0933V19.4133L439.467 34.6667L412.302 19.4133V-11.0933L439.467 -26.3467Z" stroke="#A8A89E" stroke-opacity="0.1"/>
<path d="M1231.64 743.253L1263.64 761.28V797.333L1231.64 815.36L1199.64 797.333V761.28L1231.64 743.253Z" stroke="#A8A89E" stroke-opacity="0.1"/>
<path d="M793.6 535.253L842.809 562.987V618.453L793.6 646.187L744.391 618.453V562.987L793.6 535.253Z" stroke="#A8A89E" stroke-opacity="0.1"/>
<path d="M787.911 320.32L833.422 345.973V397.28L787.911 422.933L742.4 397.28V345.973L787.911 320.32Z" stroke="#A8A89E" stroke-opacity="0.1"/>
<path d="M1248.71 424.32L1284.41 444.426V484.64L1248.71 504.746L1213.01 484.64V444.426L1248.71 424.32Z" stroke="#A8A89E" stroke-opacity="0.1"/>
<path d="M167.822 117.867L210.916 142.133V190.667L167.822 214.933L124.729 190.667V142.133L167.822 117.867Z" stroke="#A8A89E" stroke-opacity="0.1"/>
<path d="M708.267 33.28L746.382 54.7734V97.76L708.267 119.253L670.151 97.76V54.7734L708.267 33.28Z" stroke="#A8A89E" stroke-opacity="0.1"/>
<path d="M1006.93 542.187L1034.1 557.44V587.947L1006.93 603.2L979.769 587.947V557.44L1006.93 542.187Z" stroke="#A8A89E" stroke-opacity="0.1"/>
<path d="M671.289 413.227L716.8 438.88V490.187L671.289 515.84L625.778 490.187V438.88L671.289 413.227Z" stroke="#A8A89E" stroke-opacity="0.1"/>
<path d="M456.533 758.507L505.742 786.24V841.707L456.533 869.44L407.324 841.707V786.24L456.533 758.507Z" stroke="#A8A89E" stroke-opacity="0.1"/>
<path d="M81.0667 -22.1868L116.764 -2.0801V38.1332L81.0667 58.2399L45.3689 38.1332V-2.0801L81.0667 -22.1868Z" stroke="#A8A89E" stroke-opacity="0.1"/>
<path d="M11.3777 122.027L55.7511 146.987V196.907L11.3777 221.867L-32.9956 196.907V146.987L11.3777 122.027Z" stroke="#A8A89E" stroke-opacity="0.1"/>
<path d="M15.6444 348.053L63.7155 375.093V429.173L15.6444 456.213L-32.4268 429.173V375.093L15.6444 348.053Z" stroke="#A8A89E" stroke-opacity="0.1"/>
<path d="M675.555 619.84L719.929 644.8V694.72L675.555 719.68L631.182 694.72V644.8L675.555 619.84Z" stroke="#A8A89E" stroke-opacity="0.1"/>
<path d="M423.822 317.547L449.707 332.107V361.227L423.822 375.787L397.938 361.227V332.107L423.822 317.547Z" stroke="#A8A89E" stroke-opacity="0.1"/>
<path d="M14.2222 635.093L59.7333 660.747V712.053L14.2222 737.707L-31.2889 712.053V660.747L14.2222 635.093Z" stroke="#A8A89E" stroke-opacity="0.1"/>
<path d="M1093.69 176.107L1119.57 190.667V219.787L1093.69 234.347L1067.8 219.787V190.667L1093.69 176.107Z" stroke="#A8A89E" stroke-opacity="0.1"/>
<path d="M15.6444 779.307L52.6222 800.107V841.707L15.6444 862.507L-21.3334 841.707V800.107L15.6444 779.307Z" stroke="#A8A89E" stroke-opacity="0.1"/>
<path d="M1193.24 -4.16016L1224.11 13.1732V47.8398L1193.24 65.1732L1162.38 47.8398V13.1732L1193.24 -4.16016Z" stroke="#A8A89E" stroke-opacity="0.1"/>
<path d="M1277.16 270.4L1303.04 284.96V314.08L1277.16 328.64L1251.27 314.08V284.96L1277.16 270.4Z" stroke="#A8A89E" stroke-opacity="0.1"/>
<path d="M992.711 795.947L1022.29 812.587V845.867L992.711 862.507L963.129 845.867V812.587L992.711 795.947Z" stroke="#A8A89E" stroke-opacity="0.1"/>
<path d="M149.333 241.28L190.009 264.16V309.92L149.333 332.8L108.658 309.92V264.16L149.333 241.28Z" stroke="#A8A89E" stroke-opacity="0.1"/>
<path d="M568.889 -40.2134L609.564 -17.3334V28.4266L568.889 51.3066L528.213 28.4266V-17.3334L568.889 -40.2134Z" stroke="#A8A89E" stroke-opacity="0.1"/>
<path d="M595.911 543.573L625.493 560.213V593.493L595.911 610.133L566.329 593.493V560.213L595.911 543.573Z" stroke="#A8A89E" stroke-opacity="0.1"/>
<path d="M867.555 227.413L905.671 248.907V291.893L867.555 313.387L829.44 291.893V248.907L867.555 227.413Z" stroke="#A8A89E" stroke-opacity="0.1"/>
</g>
</svg>
